<?xml version="1.0" encoding="UTF-8"?><svg id="Layer_1" xmlns="http://www.w3.org/2000/svg" xmlns:xlink="http://www.w3.org/1999/xlink" viewBox="0 0 2840 1300"><defs><style>.cls-1{fill:url(#linear-gradient);}.cls-2{fill:url(#linear-gradient-8);}.cls-3{fill:url(#linear-gradient-9);}.cls-4{fill:url(#linear-gradient-3);}.cls-5{fill:url(#linear-gradient-4);}.cls-6{fill:url(#linear-gradient-2);}.cls-7{fill:url(#linear-gradient-6);}.cls-8{fill:url(#linear-gradient-7);}.cls-9{fill:url(#linear-gradient-5);}.cls-10{stroke:url(#linear-gradient-40);}.cls-10,.cls-11,.cls-12,.cls-13,.cls-14,.cls-15,.cls-16,.cls-17,.cls-18,.cls-19,.cls-20,.cls-21,.cls-22,.cls-23,.cls-24,.cls-25,.cls-26,.cls-27,.cls-28,.cls-29,.cls-30,.cls-31,.cls-32,.cls-33,.cls-34,.cls-35,.cls-36,.cls-37,.cls-38,.cls-39,.cls-40,.cls-41,.cls-42,.cls-43,.cls-44,.cls-45,.cls-46,.cls-47,.cls-48,.cls-49,.cls-50,.cls-51,.cls-52,.cls-53,.cls-54,.cls-55,.cls-56,.cls-57,.cls-58,.cls-59,.cls-60,.cls-61,.cls-62,.cls-63,.cls-64,.cls-65,.cls-66,.cls-67,.cls-68,.cls-69,.cls-70{fill:none;stroke-miterlimit:10;}.cls-11{stroke:url(#linear-gradient-41);}.cls-12{stroke:url(#linear-gradient-42);}.cls-13{stroke:url(#linear-gradient-43);}.cls-14{stroke:url(#linear-gradient-49);}.cls-15{stroke:url(#linear-gradient-44);}.cls-16{stroke:url(#linear-gradient-45);}.cls-17{stroke:url(#linear-gradient-46);}.cls-18{stroke:url(#linear-gradient-48);}.cls-19{stroke:url(#linear-gradient-47);}.cls-20{stroke:url(#linear-gradient-66);}.cls-21{stroke:url(#linear-gradient-60);}.cls-22{stroke:url(#linear-gradient-63);}.cls-23{stroke:url(#linear-gradient-64);}.cls-24{stroke:url(#linear-gradient-61);}.cls-25{stroke:url(#linear-gradient-62);}.cls-26{stroke:url(#linear-gradient-67);}.cls-27{stroke:url(#linear-gradient-68);}.cls-28{stroke:url(#linear-gradient-65);}.cls-29{stroke:url(#linear-gradient-53);}.cls-30{stroke:url(#linear-gradient-51);}.cls-31{stroke:url(#linear-gradient-52);}.cls-32{stroke:url(#linear-gradient-55);}.cls-33{stroke:url(#linear-gradient-56);}.cls-34{stroke:url(#linear-gradient-50);}.cls-35{stroke:url(#linear-gradient-59);}.cls-36{stroke:url(#linear-gradient-54);}.cls-37{stroke:url(#linear-gradient-69);}.cls-38{stroke:url(#linear-gradient-57);}.cls-39{stroke:url(#linear-gradient-58);}.cls-40{stroke:url(#linear-gradient-72);}.cls-41{stroke:url(#linear-gradient-73);}.cls-42{stroke:url(#linear-gradient-74);}.cls-43{stroke:url(#linear-gradient-75);}.cls-44{stroke:url(#linear-gradient-77);}.cls-45{stroke:url(#linear-gradient-78);}.cls-46{stroke:url(#linear-gradient-79);}.cls-47{stroke:url(#linear-gradient-70);}.cls-48{stroke:url(#linear-gradient-71);}.cls-49{stroke:url(#linear-gradient-76);}.cls-50{stroke:url(#linear-gradient-36);}.cls-51{stroke:url(#linear-gradient-37);}.cls-52{stroke:url(#linear-gradient-39);}.cls-53{stroke:url(#linear-gradient-34);}.cls-54{stroke:url(#linear-gradient-38);}.cls-55{stroke:url(#linear-gradient-33);}.cls-56{stroke:url(#linear-gradient-35);}.cls-57{stroke:url(#linear-gradient-31);}.cls-58{stroke:url(#linear-gradient-32);}.cls-59{stroke:url(#linear-gradient-30);}.cls-60{stroke:url(#linear-gradient-26);}.cls-61{stroke:url(#linear-gradient-29);}.cls-62{stroke:url(#linear-gradient-28);}.cls-63{stroke:url(#linear-gradient-25);}.cls-64{stroke:url(#linear-gradient-27);}.cls-65{stroke:url(#linear-gradient-84);}.cls-66{stroke:url(#linear-gradient-85);}.cls-67{stroke:url(#linear-gradient-80);}.cls-68{stroke:url(#linear-gradient-81);}.cls-69{stroke:url(#linear-gradient-82);}.cls-70{stroke:url(#linear-gradient-83);}.cls-71{fill:url(#linear-gradient-14);}.cls-72{fill:url(#linear-gradient-18);}.cls-73{fill:url(#linear-gradient-22);}.cls-74{fill:url(#linear-gradient-20);}.cls-75{fill:url(#linear-gradient-21);}.cls-76{fill:url(#linear-gradient-23);}.cls-77{fill:url(#linear-gradient-15);}.cls-78{fill:url(#linear-gradient-19);}.cls-79{fill:url(#linear-gradient-16);}.cls-80{fill:url(#linear-gradient-17);}.cls-81{fill:url(#linear-gradient-13);}.cls-82{fill:url(#linear-gradient-12);}.cls-83{fill:url(#linear-gradient-10);}.cls-84{fill:url(#linear-gradient-11);}.cls-85{fill:url(#linear-gradient-24);}</style><linearGradient id="linear-gradient" x1="1266.59" y1="1535.26" x2="1579.81" y2="-237.6" gradientUnits="userSpaceOnUse"><stop offset="0" stop-color="#f5f5f5"/><stop offset=".94" stop-color="#dee0fd"/></linearGradient><linearGradient id="linear-gradient-2" x1="1848.53" y1="258.55" x2="2845.38" y2="258.55" gradientUnits="userSpaceOnUse"><stop offset="0" stop-color="#ceedfd" stop-opacity="0"/><stop offset=".94" stop-color="#5865f6"/></linearGradient><linearGradient id="linear-gradient-3" x1="1849.51" y1="247.07" x2="2845.68" y2="247.07" xlink:href="#linear-gradient-2"/><linearGradient id="linear-gradient-4" x1="1850.48" y1="235.6" x2="2845.98" y2="235.6" xlink:href="#linear-gradient-2"/><linearGradient id="linear-gradient-5" x1="1851.46" y1="224.12" x2="2846.28" y2="224.12" xlink:href="#linear-gradient-2"/><linearGradient id="linear-gradient-6" x1="1852.44" y1="212.65" x2="2846.58" y2="212.65" xlink:href="#linear-gradient-2"/><linearGradient id="linear-gradient-7" x1="1853.42" y1="201.17" x2="2846.88" y2="201.17" xlink:href="#linear-gradient-2"/><linearGradient id="linear-gradient-8" x1="1854.4" y1="189.7" x2="2847.18" y2="189.7" xlink:href="#linear-gradient-2"/><linearGradient id="linear-gradient-9" x1="1855.39" y1="178.22" x2="2847.48" y2="178.22" xlink:href="#linear-gradient-2"/><linearGradient id="linear-gradient-10" x1="1856.37" y1="166.75" x2="2847.78" y2="166.75" xlink:href="#linear-gradient-2"/><linearGradient id="linear-gradient-11" x1="1857.36" y1="155.28" x2="2848.08" y2="155.28" xlink:href="#linear-gradient-2"/><linearGradient id="linear-gradient-12" x1="1858.35" y1="143.81" x2="2848.38" y2="143.81" xlink:href="#linear-gradient-2"/><linearGradient id="linear-gradient-13" x1="1859.35" y1="132.33" x2="2848.69" y2="132.33" xlink:href="#linear-gradient-2"/><linearGradient id="linear-gradient-14" x1="1860.34" y1="120.86" x2="2848.99" y2="120.86" xlink:href="#linear-gradient-2"/><linearGradient id="linear-gradient-15" x1="1861.33" y1="109.4" x2="2849.29" y2="109.4" xlink:href="#linear-gradient-2"/><linearGradient id="linear-gradient-16" x1="1862.3" y1="97.91" x2="2849.59" y2="97.91" xlink:href="#linear-gradient-2"/><linearGradient id="linear-gradient-17" x1="1863.22" y1="86.26" x2="2849.89" y2="86.26" xlink:href="#linear-gradient-2"/><linearGradient id="linear-gradient-18" x1="1864.15" y1="74.45" x2="2850.19" y2="74.45" xlink:href="#linear-gradient-2"/><linearGradient id="linear-gradient-19" x1="1865.07" y1="62.52" x2="2850.49" y2="62.52" xlink:href="#linear-gradient-2"/><linearGradient id="linear-gradient-20" x1="1866" y1="50.47" x2="2850.79" y2="50.47" xlink:href="#linear-gradient-2"/><linearGradient id="linear-gradient-21" x1="1866.93" y1="38.31" x2="2851.09" y2="38.31" xlink:href="#linear-gradient-2"/><linearGradient id="linear-gradient-22" x1="1867.87" y1="26.09" x2="2851.39" y2="26.09" xlink:href="#linear-gradient-2"/><linearGradient id="linear-gradient-23" x1="1868.8" y1="13.78" x2="2851.69" y2="13.78" xlink:href="#linear-gradient-2"/><linearGradient id="linear-gradient-24" x1="-7.25" y1="308.36" x2="794.51" y2="308.36" gradientUnits="userSpaceOnUse"><stop offset=".06" stop-color="#a3aafa"/><stop offset="1" stop-color="#dee0fd" stop-opacity="0"/></linearGradient><linearGradient id="linear-gradient-25" x1="-262.65" y1="563.28" x2="1714.09" y2="563.28" gradientTransform="translate(307.32 -110.45) rotate(15.6)" xlink:href="#linear-gradient-2"/><linearGradient id="linear-gradient-26" x1="-269.46" y1="582.5" x2="1689.9" y2="582.5" gradientTransform="translate(307.32 -110.45) rotate(15.6)" xlink:href="#linear-gradient-2"/><linearGradient id="linear-gradient-27" x1="-276.28" y1="601.73" x2="1665.72" y2="601.73" gradientTransform="translate(307.32 -110.45) rotate(15.6)" xlink:href="#linear-gradient-2"/><linearGradient id="linear-gradient-28" x1="-283.09" y1="620.95" x2="1641.53" y2="620.95" gradientTransform="translate(307.32 -110.45) rotate(15.6)" xlink:href="#linear-gradient-2"/><linearGradient id="linear-gradient-29" x1="-289.91" y1="640.17" x2="1617.34" y2="640.17" gradientTransform="translate(307.32 -110.45) rotate(15.6)" xlink:href="#linear-gradient-2"/><linearGradient id="linear-gradient-30" x1="-296.72" y1="659.45" x2="1593.15" y2="659.45" gradientTransform="translate(307.32 -110.45) rotate(15.6)" xlink:href="#linear-gradient-2"/><linearGradient id="linear-gradient-31" x1="-303.54" y1="678.68" x2="1568.96" y2="678.68" gradientTransform="translate(307.32 -110.45) rotate(15.6)" xlink:href="#linear-gradient-2"/><linearGradient id="linear-gradient-32" x1="-310.35" y1="697.91" x2="1544.78" y2="697.91" gradientTransform="translate(307.32 -110.45) rotate(15.6)" xlink:href="#linear-gradient-2"/><linearGradient id="linear-gradient-33" x1="-317.17" y1="717.13" x2="1520.59" y2="717.13" gradientTransform="translate(307.32 -110.45) rotate(15.6)" xlink:href="#linear-gradient-2"/><linearGradient id="linear-gradient-34" x1="-323.98" y1="736.36" x2="1496.4" y2="736.36" gradientTransform="translate(307.32 -110.45) rotate(15.6)" xlink:href="#linear-gradient-2"/><linearGradient id="linear-gradient-35" x1="-330.8" y1="755.58" x2="1472.21" y2="755.58" gradientTransform="translate(307.32 -110.45) rotate(15.6)" xlink:href="#linear-gradient-2"/><linearGradient id="linear-gradient-36" x1="-337.61" y1="774.8" x2="1448.02" y2="774.8" gradientTransform="translate(307.32 -110.45) rotate(15.6)" xlink:href="#linear-gradient-2"/><linearGradient id="linear-gradient-37" x1="-344.42" y1="794.02" x2="1423.84" y2="794.02" gradientTransform="translate(307.32 -110.45) rotate(15.6)" xlink:href="#linear-gradient-2"/><linearGradient id="linear-gradient-38" x1="-351.24" y1="813.24" x2="1399.65" y2="813.24" gradientTransform="translate(307.32 -110.45) rotate(15.6)" xlink:href="#linear-gradient-2"/><linearGradient id="linear-gradient-39" x1="-358.05" y1="832.45" x2="1375.46" y2="832.45" gradientTransform="translate(307.32 -110.45) rotate(15.6)" xlink:href="#linear-gradient-2"/><linearGradient id="linear-gradient-40" x1="-364.87" y1="851.66" x2="1351.27" y2="851.66" gradientTransform="translate(307.32 -110.45) rotate(15.6)" xlink:href="#linear-gradient-2"/><linearGradient id="linear-gradient-41" x1="-371.68" y1="870.87" x2="1327.09" y2="870.87" gradientTransform="translate(307.32 -110.45) rotate(15.6)" xlink:href="#linear-gradient-2"/><linearGradient id="linear-gradient-42" x1="-378.5" y1="890.08" x2="1302.9" y2="890.08" gradientTransform="translate(307.32 -110.45) rotate(15.6)" xlink:href="#linear-gradient-2"/><linearGradient id="linear-gradient-43" x1="-385.31" y1="909.28" x2="1278.71" y2="909.28" gradientTransform="translate(307.32 -110.45) rotate(15.6)" xlink:href="#linear-gradient-2"/><linearGradient id="linear-gradient-44" x1="-392.12" y1="928.48" x2="1254.52" y2="928.48" gradientTransform="translate(307.32 -110.45) rotate(15.6)" xlink:href="#linear-gradient-2"/><linearGradient id="linear-gradient-45" x1="-398.94" y1="947.68" x2="1230.33" y2="947.68" gradientTransform="translate(307.32 -110.45) rotate(15.6)" xlink:href="#linear-gradient-2"/><linearGradient id="linear-gradient-46" x1="-405.75" y1="966.87" x2="1206.15" y2="966.87" gradientTransform="translate(307.32 -110.45) rotate(15.6)" xlink:href="#linear-gradient-2"/><linearGradient id="linear-gradient-47" x1="-412.57" y1="986.06" x2="1181.96" y2="986.06" gradientTransform="translate(307.32 -110.45) rotate(15.6)" xlink:href="#linear-gradient-2"/><linearGradient id="linear-gradient-48" x1="-419.38" y1="1005.25" x2="1157.77" y2="1005.25" gradientTransform="translate(307.32 -110.45) rotate(15.6)" xlink:href="#linear-gradient-2"/><linearGradient id="linear-gradient-49" x1="-426.19" y1="1024.43" x2="1133.58" y2="1024.43" gradientTransform="translate(307.32 -110.45) rotate(15.6)" xlink:href="#linear-gradient-2"/><linearGradient id="linear-gradient-50" x1="-433.01" y1="1043.6" x2="1109.39" y2="1043.6" gradientTransform="translate(307.32 -110.45) rotate(15.6)" xlink:href="#linear-gradient-2"/><linearGradient id="linear-gradient-51" x1="-439.82" y1="1062.77" x2="1085.21" y2="1062.77" gradientTransform="translate(307.32 -110.45) rotate(15.6)" xlink:href="#linear-gradient-2"/><linearGradient id="linear-gradient-52" x1="-446.63" y1="1081.93" x2="1061.02" y2="1081.93" gradientTransform="translate(307.32 -110.45) rotate(15.6)" xlink:href="#linear-gradient-2"/><linearGradient id="linear-gradient-53" x1="-453.45" y1="1101.09" x2="1036.83" y2="1101.09" gradientTransform="translate(307.32 -110.45) rotate(15.6)" xlink:href="#linear-gradient-2"/><linearGradient id="linear-gradient-54" x1="-460.26" y1="1120.24" x2="1012.64" y2="1120.24" gradientTransform="translate(307.32 -110.45) rotate(15.6)" xlink:href="#linear-gradient-2"/><linearGradient id="linear-gradient-55" x1="-467.07" y1="1139.38" x2="988.46" y2="1139.38" gradientTransform="translate(307.32 -110.45) rotate(15.6)" xlink:href="#linear-gradient-2"/><linearGradient id="linear-gradient-56" x1="-473.88" y1="1158.52" x2="964.27" y2="1158.52" gradientTransform="translate(307.32 -110.45) rotate(15.6)" xlink:href="#linear-gradient-2"/><linearGradient id="linear-gradient-57" x1="-480.7" y1="1177.64" x2="940.08" y2="1177.64" gradientTransform="translate(307.32 -110.45) rotate(15.6)" xlink:href="#linear-gradient-2"/><linearGradient id="linear-gradient-58" x1="-487.51" y1="1196.76" x2="915.89" y2="1196.76" gradientTransform="translate(307.32 -110.45) rotate(15.6)" xlink:href="#linear-gradient-2"/><linearGradient id="linear-gradient-59" x1="-494.32" y1="1215.87" x2="891.7" y2="1215.87" gradientTransform="translate(307.32 -110.45) rotate(15.6)" xlink:href="#linear-gradient-2"/><linearGradient id="linear-gradient-60" x1="-501.13" y1="1234.96" x2="867.52" y2="1234.96" gradientTransform="translate(307.32 -110.45) rotate(15.6)" xlink:href="#linear-gradient-2"/><linearGradient id="linear-gradient-61" x1="-507.95" y1="1254.04" x2="843.33" y2="1254.04" gradientTransform="translate(307.32 -110.45) rotate(15.6)" xlink:href="#linear-gradient-2"/><linearGradient id="linear-gradient-62" x1="-514.76" y1="1273.11" x2="819.14" y2="1273.11" gradientTransform="translate(307.32 -110.45) rotate(15.6)" xlink:href="#linear-gradient-2"/><linearGradient id="linear-gradient-63" x1="-521.57" y1="1292.17" x2="794.95" y2="1292.17" gradientTransform="translate(307.32 -110.45) rotate(15.6)" xlink:href="#linear-gradient-2"/><linearGradient id="linear-gradient-64" x1="-528.38" y1="1311.2" x2="770.76" y2="1311.2" gradientTransform="translate(307.32 -110.45) rotate(15.6)" xlink:href="#linear-gradient-2"/><linearGradient id="linear-gradient-65" x1="-535.19" y1="1330.22" x2="746.58" y2="1330.22" gradientTransform="translate(307.32 -110.45) rotate(15.6)" xlink:href="#linear-gradient-2"/><linearGradient id="linear-gradient-66" x1="-542.01" y1="1349.23" x2="722.39" y2="1349.23" gradientTransform="translate(307.32 -110.45) rotate(15.6)" xlink:href="#linear-gradient-2"/><linearGradient id="linear-gradient-67" x1="-548.82" y1="1368.21" x2="698.2" y2="1368.21" gradientTransform="translate(307.32 -110.45) rotate(15.6)" xlink:href="#linear-gradient-2"/><linearGradient id="linear-gradient-68" x1="-555.63" y1="1387.17" x2="674.01" y2="1387.17" gradientTransform="translate(307.32 -110.45) rotate(15.6)" xlink:href="#linear-gradient-2"/><linearGradient id="linear-gradient-69" x1="-562.44" y1="1406.1" x2="649.82" y2="1406.1" gradientTransform="translate(307.32 -110.45) rotate(15.6)" xlink:href="#linear-gradient-2"/><linearGradient id="linear-gradient-70" x1="-569.25" y1="1425.01" x2="625.64" y2="1425.01" gradientTransform="translate(307.32 -110.45) rotate(15.6)" xlink:href="#linear-gradient-2"/><linearGradient id="linear-gradient-71" x1="-576.06" y1="1443.9" x2="601.45" y2="1443.9" gradientTransform="translate(307.32 -110.45) rotate(15.6)" xlink:href="#linear-gradient-2"/><linearGradient id="linear-gradient-72" x1="-582.87" y1="1462.75" x2="577.26" y2="1462.75" gradientTransform="translate(307.32 -110.45) rotate(15.6)" xlink:href="#linear-gradient-2"/><linearGradient id="linear-gradient-73" x1="-589.68" y1="1481.59" x2="553.07" y2="1481.59" gradientTransform="translate(307.32 -110.45) rotate(15.6)" xlink:href="#linear-gradient-2"/><linearGradient id="linear-gradient-74" x1="-596.49" y1="1500.4" x2="528.89" y2="1500.4" gradientTransform="translate(307.32 -110.45) rotate(15.6)" xlink:href="#linear-gradient-2"/><linearGradient id="linear-gradient-75" x1="-603.31" y1="1519.2" x2="504.7" y2="1519.2" gradientTransform="translate(307.32 -110.45) rotate(15.6)" xlink:href="#linear-gradient-2"/><linearGradient id="linear-gradient-76" x1="-610.13" y1="1538" x2="480.51" y2="1538" gradientTransform="translate(307.32 -110.45) rotate(15.6)" xlink:href="#linear-gradient-2"/><linearGradient id="linear-gradient-77" x1="-616.95" y1="1556.8" x2="456.32" y2="1556.8" gradientTransform="translate(307.32 -110.45) rotate(15.6)" xlink:href="#linear-gradient-2"/><linearGradient id="linear-gradient-78" x1="-623.78" y1="1575.6" x2="432.13" y2="1575.6" gradientTransform="translate(307.32 -110.45) rotate(15.6)" xlink:href="#linear-gradient-2"/><linearGradient id="linear-gradient-79" x1="-630.6" y1="1594.4" x2="407.95" y2="1594.4" gradientTransform="translate(307.32 -110.45) rotate(15.6)" xlink:href="#linear-gradient-2"/><linearGradient id="linear-gradient-80" x1="-637.42" y1="1613.2" x2="383.76" y2="1613.2" gradientTransform="translate(307.32 -110.45) rotate(15.6)" xlink:href="#linear-gradient-2"/><linearGradient id="linear-gradient-81" x1="-644.25" y1="1632" x2="359.57" y2="1632" gradientTransform="translate(307.32 -110.45) rotate(15.6)" xlink:href="#linear-gradient-2"/><linearGradient id="linear-gradient-82" x1="-651.07" y1="1650.8" x2="335.38" y2="1650.8" gradientTransform="translate(307.32 -110.45) rotate(15.6)" xlink:href="#linear-gradient-2"/><linearGradient id="linear-gradient-83" x1="-657.9" y1="1669.61" x2="311.19" y2="1669.61" gradientTransform="translate(307.32 -110.45) rotate(15.6)" xlink:href="#linear-gradient-2"/><linearGradient id="linear-gradient-84" x1="-664.72" y1="1688.41" x2="287.01" y2="1688.41" gradientTransform="translate(307.32 -110.45) rotate(15.6)" xlink:href="#linear-gradient-2"/><linearGradient id="linear-gradient-85" x1="-671.55" y1="1707.21" x2="262.82" y2="1707.21" gradientTransform="translate(307.32 -110.45) rotate(15.6)" xlink:href="#linear-gradient-2"/></defs><rect class="cls-1" x="-7.25" y="-12.55" width="2860.9" height="1322.75"/><g><path class="cls-6" d="m2845.16,447c-113.96-26.56-222.63-79.08-314.25-151.87-12.64-10.04-25.18-20.64-37.3-30.89-23.32-19.71-47.44-40.1-73.23-57.33-45.79-30.59-90.04-45.78-131.52-45.2-23.86.34-47.56,5.97-70.49,11.41-10.21,2.42-20.76,4.93-31.21,6.94-59.62,11.48-122.92,7.29-183.04-12.11-60.12-19.4-113.92-53-155.59-97.17l.73-.69c41.55,44.05,95.21,77.55,155.17,96.91,59.96,19.35,123.08,23.53,182.54,12.08,10.42-2.01,20.97-4.51,31.17-6.93,22.98-5.45,46.74-11.09,70.71-11.44,41.7-.58,86.12,14.66,132.08,45.37,25.84,17.26,49.98,37.66,73.32,57.39,12.12,10.25,24.66,20.84,37.28,30.87,91.51,72.7,200.04,125.15,313.86,151.68l-.23.97Z"/><path class="cls-4" d="m2845.44,431.29c-114.13-28.23-222.75-79.46-314.13-148.15-12.65-9.51-25.22-19.55-37.38-29.25-14.6-11.65-29.7-23.7-45.01-34.91-10.32-7.55-19.83-14.07-29.08-19.93-46-29.14-90.21-43.7-131.45-43.29-23.58.24-47.03,5.39-69.7,10.37-10.36,2.28-21.07,4.63-31.66,6.49-56.76,9.94-116.85,5.86-173.78-11.79-30.24-9.37-59.83-22.64-87.96-39.42-28.04-16.74-53.54-36.19-75.79-57.82l.7-.72c22.19,21.58,47.63,40.99,75.61,57.68,28.05,16.74,57.57,29.98,87.74,39.33,56.77,17.6,116.7,21.67,173.31,11.76,10.57-1.85,21.27-4.2,31.62-6.48,22.72-4.99,46.22-10.15,69.9-10.39,41.46-.42,85.83,14.2,132,43.44,9.27,5.87,18.8,12.4,29.14,19.97,15.33,11.22,30.43,23.28,45.04,34.94,12.15,9.7,24.72,19.73,37.36,29.23,91.27,68.61,199.77,119.78,313.77,147.98l-.24.97Z"/><path class="cls-5" d="m2845.73,415.58c-114.58-30.01-223.16-79.96-314-144.44-12.64-8.98-25.23-18.44-37.4-27.59-14.85-11.16-30.21-22.71-45.75-33.44-10.38-7.17-19.95-13.36-29.27-18.95-46.2-27.69-90.4-41.63-131.39-41.38-23.28.13-46.44,4.81-68.84,9.34-10.53,2.13-21.42,4.33-32.18,6.03-56.75,8.94-116.47,4.1-172.69-14.01-29.2-9.4-58.61-22.75-87.41-39.69-27.55-16.21-53.94-35.26-76.32-55.09l.66-.75c22.33,19.79,48.66,38.8,76.16,54.98,28.73,16.9,58.07,30.23,87.21,39.6,56.08,18.06,115.63,22.89,172.23,13.97,10.74-1.69,21.61-3.89,32.13-6.02,22.45-4.53,45.66-9.22,69.03-9.36,41.21-.26,85.55,13.73,131.91,41.52,9.34,5.59,18.93,11.8,29.33,18.98,15.55,10.74,30.92,22.29,45.78,33.47,12.16,9.14,24.74,18.6,37.37,27.57,90.75,64.41,199.22,114.3,313.68,144.29l-.25.97Z"/><path class="cls-9" d="m2846.02,399.87c-115.42-31.94-223.96-80.61-313.88-140.72-12.61-8.45-25.18-17.32-37.33-25.91-15.13-10.68-30.77-21.73-46.56-31.99-10.46-6.79-20.09-12.67-29.46-17.96-46.4-26.24-90.57-39.49-131.33-39.47-22.96.03-45.81,4.24-67.92,8.31-10.72,1.98-21.81,4.02-32.76,5.56-56.74,7.94-116.09,2.33-171.61-16.23-28.04-9.36-57.27-22.81-86.86-39.96-27.28-15.82-53.85-33.92-76.84-52.36l.63-.78c22.95,18.4,49.48,36.48,76.72,52.27,29.53,17.12,58.7,30.54,86.67,39.88,55.38,18.5,114.56,24.1,171.15,16.18,10.93-1.53,22.01-3.58,32.72-5.55,22.15-4.08,45.04-8.3,68.09-8.33h.27c40.84,0,85.1,13.32,131.56,39.6,9.39,5.3,19.04,11.19,29.51,17.99,15.81,10.27,31.46,21.33,46.59,32.01,12.15,8.58,24.71,17.45,37.31,25.89,89.83,60.06,198.27,108.67,313.59,140.59l-.27.96Z"/><path class="cls-7" d="m2846.3,384.17c-118.52-34.59-224.09-80.69-313.76-137.01-12.55-7.9-25.08-16.19-37.19-24.2-15.43-10.21-31.38-20.77-47.46-30.56-10.53-6.41-20.23-11.96-29.65-16.97-46.61-24.8-90.77-37.43-131.27-37.55-.21,0-.42,0-.63,0-22.4,0-44.7,3.71-66.27,7.3-10.95,1.82-22.27,3.71-33.44,5.08-56.74,6.93-115.71.55-170.52-18.44-27.1-9.38-55.33-22.54-86.31-40.23-26.61-15.2-53.36-32.36-77.36-49.62l.58-.81c23.98,17.25,50.7,34.38,77.28,49.57,30.93,17.67,59.1,30.8,86.14,40.16,54.67,18.94,113.48,25.3,170.07,18.4,11.15-1.37,22.46-3.25,33.39-5.07,21.82-3.63,44.36-7.4,67.07-7.31,40.66.12,84.99,12.8,131.74,37.67,9.44,5.02,19.16,10.58,29.7,17,16.09,9.81,32.05,20.37,47.49,30.58,12.11,8.01,24.63,16.3,37.17,24.19,89.59,56.27,195.07,102.33,313.5,136.89l-.28.96Z"/><path class="cls-8" d="m2846.59,368.46c-120.92-37.15-226.44-82-313.63-133.29-12.45-7.35-24.89-15.03-36.93-22.47-15.77-9.75-32.08-19.82-48.47-29.16-10.6-6.03-20.36-11.26-29.84-15.98-46.81-23.35-90.95-35.34-131.21-35.64-22.25-.18-44.37,3.12-65.79,6.3-11.2,1.66-22.79,3.38-34.21,4.58-56.74,5.9-115.33-1.24-169.44-20.66-25.89-9.28-53.14-22.15-85.76-40.5-24.71-13.9-50.91-29.68-77.88-46.89l.54-.84c26.96,17.2,53.14,32.97,77.84,46.86,32.57,18.33,59.77,31.17,85.61,40.43,53.96,19.37,112.4,26.5,169,20.61,11.4-1.2,22.97-2.91,34.16-4.58,21.46-3.19,43.66-6.49,65.95-6.31,40.41.3,84.71,12.33,131.65,35.75,9.5,4.73,19.28,9.97,29.89,16.01,16.41,9.35,32.73,19.43,48.5,29.18,12.03,7.43,24.47,15.12,36.91,22.46,87.12,51.25,192.57,96.07,313.42,133.2l-.29.96Z"/><path class="cls-2" d="m2846.88,352.75c-128.45-41.48-228.07-82.65-313.5-129.58-12.29-6.77-24.6-13.85-36.5-20.69-16.17-9.3-32.88-18.91-49.66-27.81-10.66-5.65-20.49-10.56-30.03-15-47.66-22.21-90.56-33.25-131.15-33.73-21.8-.27-43.54,2.57-64.56,5.32-11.5,1.5-23.39,3.05-35.1,4.07-56.74,4.88-114.96-3.03-168.35-22.88-31.02-11.51-60.48-27.07-85.22-40.77-15.79-8.75-31.41-17.6-46.51-26.16-11.25-6.38-21.87-12.4-31.9-18l.49-.87c10.03,5.6,20.65,11.62,31.9,18,15.1,8.56,30.71,17.41,46.5,26.15,24.7,13.69,54.13,29.23,85.08,40.71,53.26,19.79,111.32,27.68,167.92,22.82,11.69-1.02,23.57-2.57,35.06-4.06,21.06-2.75,42.84-5.58,64.7-5.33,40.73.48,83.77,11.55,131.56,33.82,9.56,4.45,19.4,9.36,30.08,15.02,16.79,8.91,33.51,18.53,49.69,27.83,11.89,6.84,24.19,13.91,36.48,20.68,85.38,46.89,184.94,88.04,313.33,129.5l-.31.95Z"/><path class="cls-3" d="m2847.16,337.04c-98.42-33.35-212.61-74.39-313.38-125.86-12.07-6.19-24.17-12.64-35.86-18.87-16.63-8.86-33.82-18.03-51.04-26.5-10.73-5.27-20.61-9.85-30.22-14.01-47.86-20.75-90.74-31.15-131.09-31.82-21.34-.35-42.61,2.04-63.2,4.36-11.84,1.33-24.08,2.71-36.13,3.54-56.74,3.85-114.58-4.83-167.27-25.09-29.36-11.27-57.93-26.46-84.67-41.05-29.49-16.08-55.78-30.3-78.92-41.42l.43-.9c23.16,11.13,49.47,25.36,78.97,41.45,26.71,14.57,55.24,29.74,84.55,40.99,52.55,20.21,110.24,28.87,166.84,25.03,12.03-.83,24.26-2.2,36.08-3.53,20.62-2.32,41.93-4.72,63.33-4.36,40.48.66,83.49,11.1,131.47,31.9,9.63,4.16,19.53,8.75,30.27,14.03,17.23,8.48,34.43,17.65,51.07,26.51,11.69,6.23,23.79,12.68,35.85,18.86,100.71,51.45,214.86,92.47,313.24,125.81l-.32.95Z"/><path class="cls-83" d="m2847.45,321.33l-17.83-6.33c-99.48-35.29-202.35-71.79-295.42-115.82-11.76-5.59-23.56-11.39-34.97-17-17.18-8.45-34.94-17.18-52.69-25.24-10.79-4.89-20.74-9.15-30.41-13.02-48.05-19.28-90.91-29.06-131.03-29.9-20.79-.44-41.57,1.52-61.66,3.42-12.23,1.16-24.89,2.35-37.33,2.98-56.75,2.8-114.21-6.64-166.18-27.31-27.65-10.98-54.47-25.39-80.4-39.32l-3.72-2c-21.34-11.45-52.78-27.93-79.43-38.69l.37-.93c26.7,10.78,58.18,27.27,79.53,38.74l3.72,2c25.91,13.92,52.7,28.31,80.3,39.27,51.84,20.62,109.16,30.04,165.76,27.24,12.42-.63,25.06-1.82,37.28-2.98,20.12-1.9,40.92-3.87,61.77-3.43,40.24.84,83.22,10.65,131.38,29.97,9.69,3.88,19.65,8.14,30.46,13.04,17.76,8.06,35.53,16.8,52.72,25.25,11.41,5.61,23.2,11.41,34.95,16.99,93.02,44.01,195.87,80.5,295.33,115.78l17.83,6.33-.33.94Z"/><path class="cls-84" d="m2847.74,305.62c-30.31-11.27-61.43-22.47-91.53-33.3-74.17-26.69-150.86-54.29-221.59-85.13-11.32-4.96-22.7-10.1-33.71-15.06-17.84-8.05-36.3-16.38-54.7-24.04-10.85-4.51-20.86-8.45-30.61-12.04-48.24-17.82-91.08-26.97-130.97-27.99-20.2-.52-40.39,1.02-59.91,2.52-12.7.97-25.83,1.98-38.74,2.39-56.75,1.76-113.84-8.46-165.09-29.53-24.03-9.86-47.47-22.36-70.14-34.45-4.48-2.39-8.95-4.77-13.43-7.14-32.65-17.25-58.8-29.01-79.95-35.96l.31-.95c21.2,6.97,47.4,18.75,80.1,36.03,4.48,2.37,8.96,4.75,13.44,7.14,22.65,12.08,46.07,24.56,70.05,34.4,51.12,21.02,108.07,31.2,164.68,29.45,12.88-.41,26-1.41,38.69-2.39,19.55-1.5,39.76-3.04,60.01-2.52,40,1.02,82.95,10.2,131.29,28.05,9.76,3.59,19.78,7.53,30.65,12.05,18.42,7.67,36.88,16,54.73,24.05,11,4.96,22.38,10.1,33.7,15.06,70.71,30.83,147.38,58.42,221.53,85.11,30.1,10.83,61.22,22.03,91.54,33.3l-.35.94Z"/><path class="cls-82" d="m2848.02,289.91c-49.02-19.05-99.74-36.96-148.79-54.28-54.66-19.3-111.18-39.26-164.21-60.44-10.73-4.31-21.52-8.75-31.96-13.05-18.67-7.68-37.98-15.63-57.2-22.92-10.92-4.13-21-7.75-30.8-11.05-48.42-16.35-91.24-24.88-130.92-26.07-19.51-.59-39.03.55-57.9,1.66-13.25.78-26.96,1.58-40.41,1.76-57.57.71-112.75-9.98-164.01-31.75-21.16-8.97-41.9-20.03-61.95-30.72-6.9-3.68-14.03-7.48-21.07-11.14-31.89-16.58-58.96-27.76-80.46-33.23l.25-.97c21.57,5.5,48.71,16.71,80.67,33.32,7.04,3.66,14.18,7.46,21.08,11.14,20.04,10.68,40.75,21.73,61.87,30.68,51.13,21.71,106.18,32.38,163.6,31.67,13.43-.18,27.12-.98,40.36-1.75,18.9-1.11,38.44-2.25,57.99-1.66,39.78,1.2,82.69,9.74,131.21,26.13,9.81,3.3,19.9,6.92,30.83,11.06,19.23,7.29,38.54,15.24,57.22,22.93,10.44,4.3,21.23,8.74,31.96,13.05,53,21.18,109.52,41.13,164.17,60.43,49.06,17.32,99.79,35.23,148.82,54.29l-.36.93Z"/><path class="cls-81" d="m2848.31,274.2c-63.9-25.94-130.61-48.46-195.13-70.25-39.01-13.17-79.35-26.79-117.73-40.76-9.87-3.61-19.82-7.32-29.44-10.9-19.75-7.36-40.18-14.98-60.47-21.93-10.97-3.75-21.11-7.05-30.99-10.06-48.58-14.89-91.39-22.79-130.86-24.16-18.71-.65-37.45.11-55.57.84-13.91.57-28.3,1.16-42.41,1.07-57.58-.38-112.39-11.81-162.92-33.96-18.84-8.24-37.36-18.17-55.28-27.77-8.89-4.76-18.08-9.69-27.2-14.35-31.78-16.24-59.02-26.51-80.97-30.51l.18-.98c22.04,4.02,49.38,14.31,81.24,30.6,9.12,4.66,18.32,9.59,27.21,14.36,17.9,9.59,36.4,19.51,55.21,27.74,50.41,22.1,105.09,33.5,162.53,33.88,14.08.08,28.46-.51,42.36-1.07,18.14-.74,36.9-1.5,55.64-.84,39.56,1.38,82.45,9.29,131.12,24.2,9.89,3.02,20.04,6.31,31.02,10.07,20.3,6.96,40.74,14.58,60.5,21.94,9.62,3.59,19.57,7.29,29.43,10.9,38.38,13.96,78.71,27.58,117.71,40.75,64.53,21.79,131.26,44.32,195.19,70.27l-.38.93Z"/><path class="cls-71" d="m2848.6,258.49c-76.01-32.19-156.18-57.51-233.72-82.01-26.08-8.24-53.05-16.76-79.02-25.29-8.63-2.85-17.22-5.73-25.78-8.59-21.21-7.1-43.14-14.44-64.88-21.11-11.03-3.38-21.23-6.34-31.18-9.07-48.74-13.42-91.53-20.7-130.8-22.25-17.76-.7-35.57-.3-52.8.1-14.72.34-29.94.69-44.84.32-57.58-1.47-112.03-13.64-161.84-36.18-16.91-7.64-33.59-16.66-49.72-25.39-10.51-5.68-21.37-11.56-32.2-17.01-31.31-15.73-59.49-25.34-81.48-27.79l.11-.99c22.11,2.46,50.4,12.1,81.82,27.89,10.85,5.45,21.72,11.33,32.23,17.02,16.11,8.72,32.77,17.73,49.66,25.36,49.68,22.48,104,34.62,161.45,36.09,14.88.37,30.08.02,44.79-.32,17.24-.4,35.06-.81,52.86-.1,39.35,1.55,82.21,8.84,131.03,22.28,9.96,2.73,20.17,5.7,31.21,9.08,21.75,6.67,43.69,14.02,64.91,21.12,8.56,2.87,17.14,5.74,25.77,8.59,25.96,8.53,52.93,17.05,79,25.28,77.56,24.5,157.76,49.83,233.81,82.04l-.39.92Z"/><path class="cls-77" d="m2848.88,242.78c-86.01-37.96-177.8-64.52-266.57-90.19-15.15-4.38-30.81-8.91-46.04-13.39-6.77-2-13.52-4.01-20.25-6.01-23.28-6.93-47.36-14.1-71.17-20.56-11.06-2.99-21.32-5.64-31.37-8.09-48.87-11.95-91.64-18.6-130.74-20.33-16.63-.74-33.33-.65-49.47-.56-15.71.09-31.95.18-47.83-.51-57.6-2.57-111.68-15.49-160.75-38.39-15.3-7.13-30.42-15.41-45.04-23.42-11.83-6.48-24.06-13.18-36.34-19.24-21.86-10.79-53.82-23.9-81.99-25.06l.04-1c28.34,1.17,60.45,14.33,82.39,25.17,12.29,6.07,24.54,12.78,36.38,19.26,14.61,8,29.71,16.27,44.98,23.39,48.95,22.85,102.91,35.74,160.37,38.3,15.85.69,32.08.6,47.78.51,16.16-.09,32.86-.18,49.52.56,39.17,1.73,82,8.39,130.94,20.36,10.06,2.45,20.33,5.1,31.4,8.09,23.82,6.46,47.9,13.63,71.19,20.57,6.73,2,13.47,4.01,20.24,6.01,15.23,4.47,30.89,9,46.04,13.39,88.8,25.69,180.62,52.25,266.69,90.24l-.4.91Z"/><path class="cls-79" d="m2849.17,227.07c-94.33-43.37-196.33-69.78-294.98-95.33-5.85-1.52-11.69-3.03-17.5-4.54l-11.19-2.93c-26.52-6.94-53.93-14.13-80.97-20.51-11.09-2.61-21.41-4.94-31.56-7.1-48.97-10.48-91.71-16.51-130.69-18.42-15.24-.75-30.55-.93-45.36-1.1-16.95-.19-34.49-.4-51.6-1.47-57.61-3.68-111.32-17.34-159.66-40.61-13.92-6.69-27.71-14.36-41.03-21.77-12.92-7.19-26.29-14.62-39.79-21.17-21.9-10.63-53.99-23.12-82.5-22.35l-.03-1c28.7-.8,60.96,11.77,82.96,22.45,13.53,6.57,26.91,14,39.84,21.2,13.32,7.4,27.09,15.06,40.98,21.74,48.22,23.21,101.82,36.85,159.29,40.51,17.08,1.07,34.6,1.27,51.54,1.47,14.82.17,30.15.35,45.4,1.1,39.03,1.91,81.83,7.94,130.85,18.44,10.16,2.17,20.49,4.49,31.58,7.1,27.05,6.39,54.48,13.57,81,20.52l11.19,2.93c5.82,1.51,11.65,3.02,17.5,4.54,98.69,25.56,200.73,51.99,295.14,95.39l-.42.91Z"/><path class="cls-80" d="m2849.46,211.36c-101.18-48.4-213.37-73.77-312.35-96.16-33.04-7.52-62.84-14.24-92.92-20.31-11.1-2.23-21.49-4.23-31.76-6.11-49-9.01-91.73-14.41-130.63-16.5-13.48-.73-27.04-1.11-40.17-1.47-18.56-.52-37.76-1.05-56.45-2.59-57.62-4.79-110.97-19.2-158.58-42.83-12.74-6.31-25.36-13.45-37.57-20.35-13.84-7.82-28.14-15.91-42.71-22.85-21.96-10.47-54.19-22.36-83.01-19.63l-.09-1c29.05-2.76,61.46,9.2,83.53,19.72,14.6,6.96,28.92,15.05,42.77,22.88,12.2,6.9,24.81,14.03,37.53,20.33,47.5,23.57,100.73,37.94,158.22,42.73,18.67,1.54,37.85,2.07,56.4,2.59,13.13.37,26.7.74,40.19,1.47,38.94,2.09,81.71,7.5,130.76,16.52,10.27,1.88,20.66,3.88,31.77,6.11,30.09,6.07,59.89,12.79,92.94,20.31,99.03,22.39,211.28,47.78,312.56,96.23l-.43.9Z"/><path class="cls-72" d="m2849.74,195.65c-97.48-48.49-207.69-72.26-312.22-92.44-25.63-4.98-59.43-11.44-93.67-17.18-10.91-1.82-21.66-3.55-31.95-5.12-48.89-7.53-91.6-12.3-130.57-14.59-11.17-.66-22.45-1.14-33.35-1.62-20.71-.9-42.13-1.82-62.93-3.94-57.62-5.92-110.61-21.08-157.49-45.04-11.71-5.98-23.33-12.67-34.56-19.14-14.59-8.4-29.69-17.09-45.17-24.34-31.14-14.57-60.8-20.58-83.52-16.92l-.16-.99c16.21-2.61,43.96-1.79,84.1,17,15.52,7.27,30.63,15.96,45.24,24.38,11.23,6.46,22.83,13.15,34.52,19.11,46.77,23.91,99.64,39.03,157.14,44.94,20.77,2.12,42.17,3.04,62.87,3.94,10.91.47,22.19.96,33.37,1.62,39,2.29,81.74,7.06,130.67,14.6,10.29,1.58,21.05,3.3,31.96,5.13,34.25,5.74,68.06,12.2,93.69,17.18,104.6,20.2,214.88,43.98,312.48,92.53l-.45.9Z"/><path class="cls-78" d="m2850.03,179.94c-99.97-51.68-213.52-72.9-312.09-88.73-33.86-5.48-64.75-10.07-94.42-14.05-10.77-1.44-21.58-2.83-32.14-4.14-48.42-6.02-91.11-10.17-130.51-12.67-8.02-.51-16.13-.97-23.97-1.42-23.71-1.35-48.23-2.74-71.97-5.63-57.64-7.06-110.26-22.96-156.41-47.26-10.8-5.68-21.53-11.98-31.91-18.07-15.23-8.94-30.98-18.19-47.27-25.67-31.25-14.36-61.09-19.4-84.03-14.2l-.22-.98c23.15-5.24,53.22-.17,84.67,14.27,16.34,7.5,32.11,16.76,47.36,25.72,10.37,6.09,21.09,12.38,31.87,18.05,46.04,24.25,98.55,40.11,156.06,47.15,23.71,2.89,48.21,4.28,71.91,5.63,7.84.45,15.96.91,23.98,1.42,39.43,2.51,82.14,6.65,130.57,12.68,10.56,1.31,21.38,2.7,32.15,4.14,29.68,3.97,60.58,8.57,94.45,14.05,98.65,15.85,212.29,37.09,312.39,88.83l-.46.89Z"/><path class="cls-74" d="m2850.31,164.23c-96.66-51.88-207.06-71.52-311.97-85.02-30.57-3.96-62.59-7.63-95.17-10.91-10.43-1.05-21.31-2.11-32.33-3.15-45.53-4.33-89.43-7.94-130.46-10.75-3.42-.23-6.83-.47-10.24-.7-28.17-1.9-57.29-3.87-85.36-7.85-57.64-8.2-109.9-24.85-155.32-49.48-10-5.42-19.95-11.38-29.56-17.14-15.76-9.44-32.07-19.21-49.07-26.88-31.37-14.14-61.39-18.22-84.55-11.49l-.28-.96c23.38-6.79,53.65-2.69,85.24,11.54,17.06,7.69,33.38,17.47,49.17,26.93,9.61,5.76,19.54,11.71,29.53,17.12,45.31,24.57,97.46,41.18,154.99,49.36,28.04,3.97,55.85,5.85,85.29,7.84,3.41.23,6.82.46,10.24.7,41.04,2.81,84.94,6.43,130.48,10.75,11.02,1.04,21.9,2.1,32.34,3.15,32.59,3.28,64.62,6.95,95.2,10.92,105,13.51,215.51,33.17,312.31,85.13l-.47.88Z"/><path class="cls-75" d="m2850.6,148.52c-97.73-54.44-212.48-71.65-311.84-81.31-28.89-2.83-59.37-5.3-95.92-7.78-10.78-.73-21.62-1.45-32.52-2.16l-21.9-1.44c-35.54-2.33-72.3-4.74-108.5-7.4-30.81-2.27-63.55-4.91-95.27-10.04-57.65-9.36-109.54-26.75-154.23-51.69-9.29-5.18-18.54-10.84-27.48-16.31-16.21-9.92-32.97-20.18-50.61-27.97-31.49-13.92-61.7-17.04-85.06-8.78l-.33-.94c23.6-8.34,54.07-5.21,85.8,8.81,17.7,7.82,34.49,18.1,50.73,28.03,8.93,5.47,18.17,11.12,27.44,16.29,44.59,24.89,96.37,42.24,153.91,51.58,31.68,5.13,64.39,7.77,95.18,10.03,36.2,2.66,72.95,5.07,108.49,7.4l21.9,1.44c10.9.71,21.74,1.43,32.52,2.16,36.56,2.48,67.05,4.96,95.95,7.78,65.65,6.38,115.29,14.03,160.94,24.8,57.92,13.66,107.4,32.19,151.28,56.63l-.49.87Z"/><path class="cls-73" d="m2850.89,132.81c-98.12-56.69-212.63-71.04-311.71-77.6-34.45-2.29-68.2-3.64-96.67-4.65l-6.06-.21c-8.85-.31-17.74-.63-26.65-.96-41.5-1.54-86.02-3.44-130.34-6.92-38.42-3.02-67.69-6.58-94.93-11.54-58.47-10.67-108.56-28.3-153.15-53.91-8.65-4.97-17.27-10.36-25.61-15.57-16.58-10.37-33.73-21.09-51.93-28.98-42.67-18.49-71.94-11.74-85.58-6.07l-.38-.92c13.79-5.73,43.35-12.56,86.36,6.08,18.27,7.92,35.45,18.66,52.06,29.05,8.33,5.21,16.94,10.59,25.58,15.55,44.48,25.55,94.47,43.14,152.83,53.79,27.2,4.96,56.45,8.51,94.83,11.53,44.31,3.48,88.81,5.38,130.3,6.92,8.91.33,17.8.64,26.65.96l6.06.21c28.48,1.01,62.24,2.36,96.71,4.65,99.19,6.57,213.85,20.94,312.14,77.73l-.5.87Z"/><path class="cls-76" d="m2851.17,117.1c-54.16-32.44-118.58-53.56-196.96-64.56-68.09-9.56-139.16-10.59-212.05-10.85-76.14-.28-144.66-1.26-212.19-10.53-78.59-10.79-143.24-31.66-197.66-63.81-8.08-4.78-16.14-9.93-23.93-14.91-16.89-10.8-34.35-21.97-53.06-29.91-42.85-18.2-72.34-9.92-86.1-3.37l-.43-.9c13.91-6.63,43.71-15.01,86.92,3.35,18.79,7.98,36.29,19.17,53.21,29.99,7.78,4.98,15.83,10.12,23.9,14.89,54.3,32.08,118.83,52.91,197.28,63.68,67.47,9.26,135.95,10.24,212.06,10.52,72.93.26,144.03,1.29,212.19,10.86,78.51,11.02,143.05,32.18,197.33,64.69l-.51.86Z"/></g><path class="cls-85" d="m-7.25,208.72c141.36-16.65,283.91,29.35,400.05,107.99,130.08,88.07,277.14,94.52,401.71-9.03-62.01,105.85-259.61,130.55-359.62,74.63-52.56-29.39-93.89-75.67-145.81-106.42-89.6-53.07-194-63.95-296.33-57.33v-9.83Z"/><g><path class="cls-63" d="m12.37-30.11s514.09-42.35,548.84,478.24c13.17,197.31-63.34,359.77,137.72,444.22,373.26,156.77,668.84-107.55,989.52,423.02"/><path class="cls-60" d="m.36-12.46s508.72-40.17,545.24,473.84c13.08,181.68-50.54,333.69,101,421.62,11.12,6.47,23.39,12.6,36.94,18.37,368.61,157.39,661.51-97.65,976.94,424.22"/><path class="cls-64" d="m-11.65,5.19s503.35-38,541.64,469.45c13.9,179.51-47.77,329.95,101.69,417.39,10.98,6.46,23.09,12.59,36.46,18.36,363.97,158.01,654.18-87.75,964.35,425.43"/><path class="cls-62" d="m-23.65,22.84S474.32-12.99,514.39,487.9c14.71,177.35-44.83,325.92,102.39,413.15,10.85,6.43,22.8,12.58,35.99,18.36,359.33,158.62,646.86-77.84,951.77,426.63"/><path class="cls-61" d="m-35.66,40.49S456.94,6.83,498.79,501.15c15.52,175.19-42,322.09,103.09,408.92,10.72,6.41,22.5,12.57,35.51,18.36,354.68,159.24,639.53-67.94,939.18,427.84"/><path class="cls-59" d="m-47.67,58.15s486.03-31.38,530.85,456.27c15.91,173.06-39.17,318.26,103.78,404.69,10.58,6.4,22.21,12.53,35.04,18.35,350.37,159.13,632.2-58.04,926.59,429.04"/><path class="cls-57" d="m-59.68,75.8s480.42-29.18,527.25,451.87c16.64,170.91-36.35,314.43,104.48,400.46,10.45,6.38,21.92,12.51,34.56,18.35,345.8,159.6,624.87-48.14,914.01,430.24"/><path class="cls-58" d="m-71.68,93.45s474.82-26.98,523.66,447.48c17.37,168.76-33.52,310.6,105.18,396.23,10.31,6.37,21.63,12.5,34.09,18.34,341.23,160.09,617.54-38.24,901.42,431.45"/><path class="cls-55" d="m-83.69,111.1s469.22-24.77,520.06,443.08c18.1,166.61-30.69,306.78,105.87,391.99,10.18,6.35,21.33,12.48,33.61,18.34,336.66,160.57,610.21-28.33,888.84,432.65"/><path class="cls-53" d="m-95.7,128.75s463.63-22.57,516.46,438.69c18.84,164.46-27.87,302.96,106.57,387.76,10.04,6.33,21.04,12.47,33.14,18.33,332.09,161.06,602.88-18.43,876.25,433.86"/><path class="cls-56" d="m-107.7,146.4s458.04-20.36,512.86,434.3c19.57,162.31-25.04,299.14,107.27,383.53,9.91,6.32,20.74,12.45,32.66,18.33,327.52,161.55,595.56-8.53,863.67,435.06"/><path class="cls-50" d="m-119.71,164.05s452.46-18.15,509.27,429.9c20.31,160.17-22.21,295.32,107.96,379.3,9.77,6.3,20.45,12.44,32.18,18.33,322.95,162.05,588.23,1.37,851.08,436.27"/><path class="cls-51" d="m-131.72,181.7s446.88-15.93,505.67,425.51c21.05,158.02-19.39,291.51,108.66,375.07,9.64,6.29,20.15,12.42,31.71,18.32,318.38,162.54,580.9,11.27,838.49,437.47"/><path class="cls-54" d="m-143.72,199.35s441.3-13.72,502.07,421.12c21.78,155.87-16.56,287.7,109.36,370.83,9.5,6.27,19.86,12.41,31.23,18.32,313.81,163.05,573.57,21.18,825.91,438.67"/><path class="cls-52" d="m-155.73,217s435.73-11.5,498.47,416.72c22.52,153.73-13.74,283.89,110.05,366.6,9.37,6.26,19.56,12.39,30.76,18.31,309.24,163.55,566.24,31.08,813.32,439.88"/><path class="cls-10" d="m-167.74,234.65s430.16-9.28,494.88,412.33c23.27,151.59-10.91,280.08,110.75,362.37,9.23,6.24,19.27,12.38,30.28,18.31,304.67,164.06,558.91,40.98,800.74,441.08"/><path class="cls-11" d="m-179.75,252.3s424.6-7.05,491.28,407.93c24.01,149.44-8.09,276.28,111.44,358.14,9.1,6.23,18.98,12.36,29.81,18.3,300.11,164.58,551.58,50.88,788.15,442.29"/><path class="cls-12" d="m-191.75,269.95s419.05-4.83,487.68,403.54c24.76,147.3-5.27,272.48,112.14,353.91,8.96,6.22,18.68,12.35,29.33,18.3,295.54,165.1,544.26,60.78,775.57,443.49"/><path class="cls-13" d="m-203.76,287.6s413.5-2.6,484.08,399.15c25.5,145.16-2.44,268.68,112.84,349.67,8.83,6.2,18.39,12.34,28.86,18.3,290.97,165.62,536.93,70.69,762.98,444.69"/><path class="cls-15" d="m-215.77,305.25s407.96-.37,480.49,394.75c26.25,143.02.38,264.89,113.53,345.44,8.69,6.19,18.09,12.32,28.38,18.29,286.41,166.15,529.6,80.59,750.4,445.9"/><path class="cls-16" d="m-227.77,322.9s402.42,1.86,476.89,390.36c27.01,140.88,3.2,261.1,114.23,341.21,8.56,6.18,17.8,12.31,27.91,18.29,281.84,166.68,522.27,90.49,737.81,447.1"/><path class="cls-17" d="m-239.78,340.56s396.89,4.1,473.29,385.96c27.76,138.75,6.02,257.31,114.93,336.98,8.42,6.16,17.5,12.3,27.43,18.28,277.28,167.22,514.94,100.39,725.22,448.31"/><path class="cls-19" d="m-251.79,358.21s391.37,6.34,469.69,381.57c28.52,136.61,8.84,253.52,115.62,332.75,8.29,6.15,17.21,12.28,26.96,18.28,272.71,167.76,507.61,110.3,712.64,449.51"/><path class="cls-18" d="m-263.79,375.86s385.86,8.58,466.1,377.18c29.27,134.48,11.65,249.74,116.32,328.51,8.15,6.14,16.91,12.27,26.48,18.27,268.14,168.31,500.28,120.2,700.05,450.72"/><path class="cls-14" d="m-275.8,393.51s380.35,10.82,462.5,372.78c30.04,132.34,14.47,245.97,117.02,324.28,8.02,6.12,16.62,12.26,26,18.27,263.57,168.87,492.96,130.1,687.47,451.92"/><path class="cls-34" d="m-287.81,411.16s374.85,13.06,458.9,368.39c30.8,130.21,17.29,242.2,117.71,320.05,7.88,6.11,16.32,12.24,25.53,18.27,259.01,169.43,485.63,140,674.88,453.12"/><path class="cls-30" d="m-299.82,428.81s369.37,15.31,455.3,364c31.57,128.07,20.1,238.43,118.41,315.82,7.75,6.1,16.03,12.23,25.05,18.26,254.44,170,478.3,149.9,662.3,454.33"/><path class="cls-31" d="m-311.82,446.46s363.89,17.56,451.71,359.6c32.34,125.94,22.91,234.66,119.1,311.58,7.61,6.09,15.74,12.22,24.58,18.26,249.86,170.57,470.97,159.81,649.71,455.53"/><path class="cls-29" d="m-323.83,464.11s358.42,19.81,448.11,355.21c33.11,123.81,25.72,230.9,119.8,307.35,7.48,6.08,15.44,12.21,24.1,18.25,245.29,171.15,463.64,169.71,637.12,456.74"/><path class="cls-36" d="m-335.84,481.76S17.12,503.82,108.68,832.57c33.89,121.68,28.53,227.15,120.5,303.12,7.34,6.07,15.15,12.2,23.63,18.25,240.72,171.73,456.31,179.61,624.54,457.94"/><path class="cls-32" d="m-347.84,499.41S-.33,523.72,93.07,845.83c34.67,119.55,31.34,223.39,121.19,298.89,7.21,6.05,14.85,12.19,23.15,18.24,236.14,172.33,448.98,189.51,611.95,459.15"/><path class="cls-33" d="m-359.85,517.06s342.07,26.56,437.32,342.03c35.45,117.42,34.14,219.65,121.89,294.66,7.07,6.04,14.56,12.18,22.68,18.24,231.56,172.93,441.66,199.41,599.37,460.35"/><path class="cls-38" d="m-371.86,534.71s336.65,28.81,433.72,337.63c36.24,115.29,36.94,215.9,122.59,290.42,6.93,6.03,14.26,12.16,22.2,18.24,226.98,173.54,434.33,209.32,586.78,461.55"/><path class="cls-39" d="m-383.86,552.36s331.24,31.07,430.12,333.24c37.03,113.16,39.74,212.17,123.28,286.19,6.8,6.02,13.97,12.15,21.73,18.23,222.39,174.15,427,219.22,574.2,462.76"/><path class="cls-35" d="m-395.87,570.01S-70.03,603.33,30.65,898.86c37.83,111.04,42.54,208.43,123.98,281.96,6.66,6.01,13.67,12.14,21.25,18.23,217.8,174.77,419.67,229.12,561.61,463.96"/><path class="cls-21" d="m-407.88,587.66S-87.43,623.23,15.05,912.12c38.63,108.91,45.33,204.71,124.68,277.73,6.53,6.01,13.37,12.13,20.78,18.22,213.21,175.4,412.34,239.02,549.02,465.17"/><path class="cls-24" d="m-419.88,605.32S-104.8,643.13-.56,925.37c39.44,106.78,48.12,200.98,125.37,273.5,6.39,6,13.08,12.12,20.3,18.22,208.61,176.04,405.01,248.92,536.44,466.37"/><path class="cls-25" d="m-431.89,622.97S-122.17,663.03-16.16,938.63c40.25,104.65,50.9,197.27,126.07,269.26,6.25,5.99,12.78,12.12,19.82,18.21,204.01,176.69,397.68,258.83,523.85,467.57"/><path class="cls-22" d="m-443.9,640.62s304.38,42.31,412.14,311.27c41.07,102.52,53.69,193.55,126.76,265.03,6.11,5.98,12.49,12.11,19.35,18.21,199.4,177.34,390.36,268.73,511.27,468.78"/><path class="cls-23" d="m-455.91,658.27s299.06,44.55,408.54,306.88c41.89,100.38,56.46,189.85,127.46,260.8,5.98,5.97,12.19,12.1,18.87,18.21,194.78,178.01,383.03,278.63,498.68,469.98"/><path class="cls-28" d="m-467.91,675.92s293.75,46.79,404.94,302.48c42.72,98.25,59.24,186.14,128.16,256.57,5.84,5.97,11.89,12.09,18.4,18.2,190.16,178.68,375.7,288.53,486.1,471.19"/><path class="cls-20" d="m-479.92,693.57s288.46,49.02,401.34,298.09c43.56,96.12,62,182.45,128.85,252.34,5.7,5.96,11.6,12.08,17.92,18.2,185.53,179.36,368.37,298.43,473.51,472.39"/><path class="cls-26" d="m-491.93,711.22s283.19,51.25,397.75,293.69c44.4,93.98,64.77,178.76,129.55,248.1,5.56,5.95,11.3,12.07,17.45,18.19,180.89,180.05,361.04,308.34,460.93,473.6"/><path class="cls-27" d="m-503.93,728.87s277.93,53.47,394.15,289.3c45.26,91.84,67.53,175.07,130.25,243.87,5.42,5.95,11,12.07,16.97,18.19,176.25,180.74,353.71,318.24,448.34,474.8"/><path class="cls-37" d="m-515.94,746.52s272.7,55.68,390.55,284.91c46.11,89.69,70.28,171.39,130.94,239.64,5.28,5.94,10.7,12.06,16.5,18.18,171.59,181.45,346.38,328.14,435.75,476"/><path class="cls-47" d="m-527.95,764.17s267.48,57.88,386.95,280.51c46.98,87.54,73.02,167.71,131.64,235.41,5.14,5.94,10.41,12.05,16.02,18.18,166.92,182.16,339.06,338.04,423.17,477.21"/><path class="cls-48" d="m-539.95,781.82s262.29,60.07,383.36,276.12c47.85,85.39,75.76,164.04,132.34,231.18,5,5.93,10.11,12.04,15.55,18.18,162.24,182.89,331.73,347.94,410.58,478.41"/><path class="cls-40" d="m-551.96,799.47s257.11,62.24,379.76,271.73c48.73,83.23,78.49,160.38,133.03,226.94,4.86,5.93,9.81,12.04,15.07,18.17,157.55,183.62,324.4,357.85,398,479.62"/><path class="cls-41" d="m-563.97,817.12s251.95,64.4,376.16,267.33c49.62,81.07,81.21,156.72,133.73,222.71,4.72,5.93,9.51,12.03,14.6,18.17,152.84,184.35,317.07,367.75,385.41,480.82"/><path class="cls-42" d="m-575.98,834.77s246.81,66.54,372.56,262.94c50.52,78.9,83.93,153.07,134.42,218.48,4.57,5.92,9.21,12.03,14.12,18.16,148.12,185.1,309.74,377.65,372.83,482.03"/><path class="cls-43" d="m-587.98,852.42s241.69,68.67,368.97,258.54c51.42,76.72,86.63,149.42,135.12,214.25,4.43,5.92,8.91,12.02,13.64,18.16,143.39,185.85,302.41,387.55,360.24,483.23"/><path class="cls-49" d="m-599.99,870.07s236.6,70.77,365.37,254.15c52.34,74.53,89.33,145.77,135.82,210.02,4.28,5.92,8.61,12.02,13.17,18.15,138.64,186.61,295.08,397.46,347.65,484.43"/><path class="cls-44" d="m-612,887.73s231.51,72.85,361.77,249.76c53.26,72.33,92.01,142.13,136.51,205.78,4.14,5.92,8.31,12.01,12.69,18.15,133.87,187.38,287.76,407.36,335.07,485.64"/><path class="cls-45" d="m-624,905.38s226.45,74.9,358.17,245.36c54.19,70.12,94.69,138.49,137.21,201.55,3.99,5.92,8.01,12,12.22,18.15,129.08,188.15,280.43,417.26,322.48,486.84"/><path class="cls-46" d="m-636.01,923.03s221.4,76.93,354.58,240.97c55.13,67.9,97.35,134.86,137.91,197.32,3.84,5.92,7.7,12,11.74,18.14,124.28,188.92,273.1,427.16,309.9,488.05"/><path class="cls-67" d="m-648.02,940.68s216.36,78.92,350.98,236.57c56.07,65.67,100,131.22,138.6,193.09,3.69,5.92,7.4,11.99,11.27,18.14,119.45,189.7,265.77,437.06,297.31,489.25"/><path class="cls-68" d="m-660.02,958.33s211.34,80.88,347.38,232.18c57.02,63.42,102.64,127.59,139.3,188.86,3.54,5.92,7.1,11.99,10.79,18.13,114.61,190.48,258.44,446.97,284.73,490.45"/><path class="cls-69" d="m-672.03,975.98s206.33,82.81,343.78,227.79c57.98,61.15,105.27,123.96,140,184.62,3.39,5.92,6.79,11.98,10.32,18.13,109.74,191.26,251.11,456.87,272.14,491.66"/><path class="cls-70" d="m-684.04,993.63s201.32,84.7,340.19,223.39c58.94,58.87,107.88,120.33,140.69,180.39,3.23,5.92,6.49,11.98,9.84,18.12,104.85,192.04,243.78,466.77,259.56,492.86"/><path class="cls-65" d="m-696.05,1011.28s196.32,86.54,336.59,219c59.91,56.57,110.47,116.7,141.39,176.16,3.08,5.92,6.18,11.97,9.37,18.12,99.94,192.82,236.46,476.67,246.97,494.07"/><path class="cls-66" d="m-708.05,1028.93s191.32,88.35,332.99,214.61c60.88,54.25,113.06,113.07,142.08,171.93,2.92,5.92,5.86,11.97,8.89,18.12C-129.4,1627.33,5.04,1920.15,10.3,1928.85"/></g></svg>